<?xml version="1.0" encoding="UTF-8"?>
<!DOCTYPE svg PUBLIC "-//W3C//DTD SVG 1.1//EN" "http://www.w3.org/Graphics/SVG/1.1/DTD/svg11.dtd">
<!-- Creator: CorelDRAW -->
<svg xmlns="http://www.w3.org/2000/svg" xml:space="preserve" width="210mm" height="297mm" version="1.1" style="shape-rendering:geometricPrecision; text-rendering:geometricPrecision; image-rendering:optimizeQuality; fill-rule:evenodd; clip-rule:evenodd"
viewBox="0 0 21000 29700"
 xmlns:xlink="http://www.w3.org/1999/xlink"
 xmlns:xodm="http://www.corel.com/coreldraw/odm/2003">
 <defs>
  <style type="text/css">
   <![CDATA[
    .str0 {stroke:#E31E24;stroke-width:75;stroke-miterlimit:22.9256}
    .fil7 {fill:none}
    .fil3 {fill:#00FAEB;fill-rule:nonzero}
    .fil2 {fill:#2F2E41;fill-rule:nonzero}
    .fil5 {fill:#3F3D56;fill-rule:nonzero}
    .fil4 {fill:#E6E6E6;fill-rule:nonzero}
    .fil0 {fill:#F2F2F2;fill-rule:nonzero}
    .fil6 {fill:#FFB6B6;fill-rule:nonzero}
    .fil1 {fill:#FFB7B7;fill-rule:nonzero}
   ]]>
  </style>
 </defs>
 <g id="Warstwa_x0020_1">
  <metadata id="CorelCorpID_0Corel-Layer"/>
  <path class="fil0" d="M16846.6 21205.24c54.66,3.42 84.87,-64.49 43.52,-104.07l-4.11 -16.36c0.54,-1.31 1.09,-2.62 1.63,-3.93 55.28,-131.81 242.62,-130.9 297.43,1.11 48.65,117.16 110.58,234.52 125.83,358.4 6.84,54.68 3.76,110.39 -8.37,164.05 113.98,-248.99 173.97,-520.87 173.97,-794.3 0,-68.7 -3.76,-137.4 -11.45,-205.92 -6.32,-56.05 -15.04,-111.76 -26.32,-166.96 -61.01,-298.38 -193.11,-582.57 -383.65,-819.93 -91.6,-50.07 -167.99,-128.34 -214.13,-222.16 -16.58,-33.84 -29.56,-70.24 -35.72,-107.32 10.42,1.37 39.31,-157.39 31.44,-167.13 14.53,-22.04 40.53,-33 56.39,-54.51 78.91,-106.98 187.62,-88.3 244.37,57.08 121.24,61.19 122.41,162.67 48.02,260.27 -47.33,62.09 -53.83,146.11 -95.36,212.59 4.27,5.47 8.72,10.77 12.99,16.24 78.34,100.49 146.11,208.49 203.23,321.96 -16.14,-126.11 7.69,-278.03 48.32,-375.96 46.25,-111.58 132.95,-205.56 209.3,-302.02 91.7,-115.87 279.75,-65.3 295.91,81.58 0.16,1.42 0.31,2.84 0.46,4.26 -11.34,6.4 -22.45,13.19 -33.3,20.37 -61.9,40.94 -40.51,136.89 32.84,148.21l1.66 0.26c-4.1,40.84 -11.11,81.34 -21.36,121.16 97.94,378.77 -113.51,516.73 -415.43,522.93 -6.67,3.42 -13.16,6.83 -19.82,10.08 30.59,86.13 55.03,174.48 73.14,264.03 16.23,79.12 27.51,159.1 33.84,239.42 7.86,101.34 7.18,203.19 -1.37,304.36l0.51 -3.59c21.7,-111.42 82.2,-215.49 170.04,-287.61 130.85,-107.49 315.72,-147.07 456.89,-233.47 67.95,-41.59 155.03,12.16 143.17,90.94l-0.58 3.77c-21.02,8.54 -41.53,18.46 -61.35,29.56 -11.34,6.4 -22.45,13.19 -33.3,20.37 -61.9,40.94 -40.51,136.89 32.84,148.21l1.66 0.26c1.2,0.17 2.22,0.34 3.42,0.51 -36.06,85.61 -86.3,165.08 -149.19,233.61 -61.24,330.65 -324.27,362.02 -605.64,265.74l-0.17 -0.02c-30.76,133.98 -75.7,264.88 -133.47,389.63l-476.78 0c-1.71,-5.3 -3.25,-10.77 -4.79,-16.06 44.09,2.74 88.52,0.17 131.93,-7.86 -35.38,-43.41 -70.75,-87.16 -106.12,-130.56 -0.85,-0.85 -1.54,-1.71 -2.22,-2.56 -17.94,-22.21 -36.06,-44.26 -54,-66.48l-0.01 -0.03c-1.12,-68.2 7.05,-136.17 23.25,-202.14l0.01 -0.01 0 0z"/>
  <g id="_2282743024000">
   <polygon class="fil1" points="3495.13,20987.94 3756.02,20994.1 3901.45,19822 3516.43,19812.89 "/>
   <path class="fil2" d="M4390.22 21532.25l0 0c0,44.07 -31.28,79.8 -69.86,79.8l-517.85 0c0,0 -50.96,-204.85 -258.74,-293.01l-14.34 293.01 -267.14 0 32.37 -471.14c0,0 -71.46,-252.06 76.95,-380.91 148.41,-128.85 28.2,-110.91 28.2,-110.91l58.38 -291.6 403.68 47.47 2.97 457.75 195.9 454.36 287.34 141.94c25.57,12.63 42.13,41.42 42.13,73.25l0 0 0.01 -0.01z"/>
  </g>
  <g id="_2282743023952">
   <polygon class="fil1" points="5622.02,20944.74 5881.17,20975.44 6136.33,19822.24 5753.88,19776.91 "/>
   <path class="fil2" d="M6461.88 21570.92l0 0c-4.15,43.88 -38.65,76.5 -77.06,72.87l-515.55 -48.77c0,0 -31.44,-208.74 -230,-316.07l-41.87 290.36 -265.95 -25.16 76.59 -466c0,0 -47.41,-257.67 112.48,-371.97 159.89,-114.3 38.52,-107.76 38.52,-107.76l85.58 -284.81 397.42 85.27 -40.15 455.99 152.25 470.79 272.7 168.37c24.27,14.99 38.04,45.2 35.05,76.89l-0.01 0 0 0z"/>
  </g>
  <path id="b-304" class="fil2" d="M5355.54 10150.17c30.34,-514.9 44.67,-967.31 -105.83,-776.39 0,-457.09 -370.54,-827.63 -827.63,-827.63 -457.09,0 -827.63,370.54 -827.63,827.63l0 617.64c0.1,61.33 49.8,111.02 111.13,111.13l1538.79 158.75c61.35,-0.07 111.08,-49.77 111.18,-111.12l-0.01 -0.01z"/>
  <circle id="c" class="fil1" cx="4626.32" cy="9486.43" r="606.79"/>
  <path id="d-305" class="fil2" d="M5445.49 9423.17c8.27,-433.97 -274.92,-807.79 -654.69,-654.69l-123.53 0c-361.4,0.41 -654.28,293.28 -654.69,654.68l202.93 627.91 58.14 -615.55 89.03 -249.32 17.81 249.32 134.94 0.01c116.21,3.01 231.74,-15.46 342.29,-51.4 202.15,-65.72 394.08,4.58 587.78,51.4l0 -12.36 -0.01 0z"/>
  <path id="e-306" class="fil3" d="M4272.49 12821.27l1544.95 -58.79c-10.81,-55.9 -5.07,-137.42 -37.21,-142.07 44.98,-113.25 -17.72,-114.34 -20.24,-172.38 -9.76,-224.13 42.35,-456.8 143.82,-696.27 66.6,-185 67.68,-343.96 3.2,-472.12 -55.46,-105.35 -148.64,-185.88 -260.91,-225.5l-338.06 -408.31c-88.06,-106.27 -217.94,-335.59 -355.95,-334.72l-740.83 -26.46c-21.17,-12.73 -281.3,210.98 -534.58,320.73 -274.72,119.06 -218.04,444.39 -217.35,448.54l0.63 3.89 3.02 2.65 584.25 492.13 184.36 1038.27c-18.49,53.6 -13.78,93.84 20.76,116.92 -49.68,36.74 -15.55,75.1 20.15,113.48l0 0 0 0 -0.01 0.01z"/>
  <polygon id="f-307" class="fil2" points="5805.03,12653.86 6533.11,14834.36 6841.88,17334.7 6361.57,20273.57 5453.41,20123.21 5897.27,17814.35 5355.8,15497.23 4069.93,20104.5 3319.41,20123.21 3830.35,14806.41 4237.72,12771.74 5805.04,12653.86 5805.04,12653.86 "/>
  <path id="g-308" class="fil4" d="M20372.68 21675.84l-19745.36 0c-18.22,0 -32.99,-14.77 -32.99,-32.99 0,-18.22 14.77,-32.99 32.99,-32.99l19745.36 -0.01c18.22,0 32.99,14.77 32.99,32.99 0,18.22 -14.77,32.99 -32.99,32.99l0 0.01z"/>
  <path class="fil5" d="M11924.87 16069.63l322.27 0 0 -428.09 -322.27 0 0 428.09zm295.81 -26.46l-269.35 0 0 -375.17 269.35 0 0 375.17z"/>
  <path class="fil5" d="M10910.46 16069.63l322.26 0 0 -428.09 -322.26 0 0 428.09zm295.8 -26.46l-269.34 0 0 -375.17 269.34 0 0 375.17z"/>
  <path class="fil5" d="M11578.79 10215.49c543.3,0 985.31,-442 985.31,-985.3 0,-543.3 -442.01,-985.31 -985.31,-985.31 -543.3,0 -985.3,442.01 -985.3,985.31 0,543.3 442,985.3 985.3,985.3zm0 -1944.16c528.71,0 958.86,430.14 958.86,958.86 0,528.72 -430.14,958.84 -958.86,958.84 -528.72,0 -958.84,-430.14 -958.84,-958.84 0,-528.7 430.14,-958.86 958.84,-958.86z"/>
  <path id="h-309" class="fil2" d="M10875.88 8633.65c57.49,31.53 120.81,51.02 186.08,57.26 269.45,36.85 543.83,6.05 798.41,-89.61 41.8,105.65 143.14,178.36 251.64,212.7 108.51,34.34 223.57,36.06 337.24,37.78 24.97,2.82 50.21,-1.97 72.42,-13.73 50.67,-34.08 26.06,-112.5 -3.44,-165.76l-146.58 -265.67c-43.23,-78.45 -87.9,-158.59 -154.86,-217.86 -84.16,-74.43 -195.79,-109.35 -305.73,-131.39 -260.18,-51.81 -528.8,-42.89 -784.97,26.06 -273.98,71.86 -625.82,323.19 -250.22,550.23l0.01 -0.01z"/>
  <ellipse id="i" class="fil5" cx="10986.93" cy="9230.18" rx="84.66" ry="158.48"/>
  <ellipse id="j" class="fil5" cx="11384.65" cy="9230.18" rx="84.66" ry="158.48"/>
  <path class="fil5" d="M12645.55 12663.27l150.66 -555.48c94.92,-710.63 -3.35,-1213.12 -291.7,-1495.22 -297.04,-290.59 -695.18,-232.44 -699.16,-231.85l-17.14 2.67 7.12 15.83c3.42,7.6 343.66,764.98 510.42,1181.65 164.86,411.86 -102.97,1040.27 -105.69,1046.56l-7.65 17.71 453.14 18.13 0 0zm-749.76 -2261.31c130.82,0 385.62,29.17 590.49,229.79 281.86,276 377.42,770.87 284.05,1470.83l-144.8 533.4 -393.8 -15.75c43.91,-107.75 253.77,-661.51 98.59,-1049.21 -153.23,-382.82 -452.56,-1052.55 -503.44,-1166.12 14.82,-1.37 38.54,-2.95 68.91,-2.95l0 0.01z"/>
  <path class="fil5" d="M10512.04 12663.27l453.14 -18.13 -7.65 -17.7c-2.73,-6.3 -270.49,-634.87 -105.69,-1046.58 166.76,-416.67 507.01,-1174.05 510.43,-1181.65l7.12 -15.83 -17.14 -2.67c-4.03,-0.61 -402.15,-58.73 -699.16,231.85 -288.35,282.1 -386.62,784.59 -292.05,1493.5l151 557.2 0 0 0 0.01zm413.81 -43.03l-393.79 15.75 -145.15 -535.12c-93.02,-698.24 2.55,-1193.11 284.4,-1469.11 252.41,-247.21 580.74,-234.15 659.4,-226.85 -50.9,113.57 -350.22,783.3 -503.46,1166.12 -155.17,387.7 54.67,941.47 98.59,1049.21l0.01 0z"/>
  <circle id="k" class="fil2" cx="12402.98" cy="12717.1" r="232.57"/>
  <circle id="l" class="fil2" cx="10738.75" cy="12717.1" r="232.57"/>
  <path class="fil2" d="M11777.76 16237.65l638.45 0 0 -85.73c0,-153.19 -124.63,-277.81 -277.81,-277.81l-82.83 0c-153.18,0 -277.81,124.62 -277.81,277.81l0 85.73z"/>
  <path class="fil2" d="M10742.19 16237.65l638.44 0 0 -85.73c0,-153.19 -124.63,-277.81 -277.81,-277.81l-82.82 0c-153.18,0 -277.81,124.62 -277.81,277.81l0 85.73z"/>
  <path id="m-310" class="fil5" d="M13688.43 17163.5l-4219.26 0c-3.89,0 -7.04,-14.76 -7.04,-32.99 0,-18.23 3.15,-32.99 7.04,-32.99l4219.26 -0.01c3.89,0 7.04,14.76 7.04,32.99 0,18.23 -3.15,32.99 -7.04,32.99l0 0.01z"/>
  <g id="_2282742827664">
   <path class="fil6" d="M4500.92 14418.26c62.58,160.99 196.35,259.21 298.8,219.39 102.45,-39.82 134.77,-202.61 72.19,-363.6 -27.39,-70.47 -68.43,-128.91 -114.51,-169.01l-273.71 -678.83 -315.82 135.23 303.34 654.84c-6.9,60.69 2.31,131.51 29.7,201.98l0.01 0z"/>
   <path class="fil3" d="M4104.97 10465.69c0,0 -694.55,127.83 -660.34,445.72 34.21,317.88 535.39,2060.92 535.39,2060.92l330.28 1127.21 429.13 -144.76 -318.04 -1654.08 -316.43 -1835 0.01 -0.01z"/>
  </g>
  <path class="fil6" d="M8017.88 11457.13c-60.01,24.9 -109.42,61.29 -142.98,101.66l-586.65 201.1 103.86 276.35 583.92 -233.76c52.28,4.75 112.94,-4.54 172.95,-29.44 137.09,-56.89 218.88,-173.72 182.68,-260.96 -36.2,-87.24 -176.68,-111.85 -313.77,-54.96l-0.01 0.01z"/>
  <path class="fil3" d="M4694.44 10671.42l0 0 1338.34 1806.54 1568.82 -431.99 -68.21 -409.26 -1194.59 226.25 -666.45 -1024.56c-217.62,-420.66 -646.53,-505.38 -977.9,-166.98l-0.01 0z"/>
  <path id="n-311" class="fil4" d="M8638.48 11247.63l-1141.98 531.42c-13.38,6.36 -19.08,22.36 -12.73,35.74 5.82,12.25 19.85,18.23 32.72,13.94l1152.59 -394.47 -30.6 -186.63z"/>
  <path class="fil3" d="M8628.32 11172.64c-84.11,70.18 -103.04,186.25 -42.18,259.18 60.85,72.93 127.61,117.51 211.76,47.3 60.95,-50.85 81.05,-88.3 121,-112.68 77.51,-47.1 186.63,-96.8 146.46,-144.95 -28.14,-33.72 -105.46,-61.56 -189.14,-75.12 -97.03,-15.52 -202.59,-11.53 -247.89,26.27l-0.01 0z"/>
  <path class="fil5" d="M8876.21 11146.37c-38.58,57.01 -36.6,134.95 9.67,190.41 9.83,11.78 20.78,21.6 33.01,29.66 77.51,-47.1 186.63,-96.8 146.46,-144.95 -28.14,-33.72 -105.46,-61.56 -189.14,-75.12l0 0z"/>
  <line class="fil7 str0" x1="12017.54" y1="9036.63" x2="12378.1" y2= "9454.89" />
  <line class="fil7 str0" x1="12378.1" y1="9036.63" x2="12017.54" y2= "9454.89" />
 </g>
</svg>
