<?xml version="1.0" encoding="UTF-8"?>
<!DOCTYPE svg PUBLIC "-//W3C//DTD SVG 1.1//EN" "http://www.w3.org/Graphics/SVG/1.1/DTD/svg11.dtd">
<!-- Creator: CorelDRAW -->
<svg xmlns="http://www.w3.org/2000/svg" xml:space="preserve" width="254mm" height="254mm" version="1.1" style="shape-rendering:geometricPrecision; text-rendering:geometricPrecision; image-rendering:optimizeQuality; fill-rule:evenodd; clip-rule:evenodd"
viewBox="0 0 25400 25400"
 xmlns:xlink="http://www.w3.org/1999/xlink"
 xmlns:xodm="http://www.corel.com/coreldraw/odm/2003">
 <defs>
  <style type="text/css">
   <![CDATA[
    .str0 {stroke:#151190;stroke-width:132.29;stroke-miterlimit:22.9256}
    .fil0 {fill:url(#id0)}
   ]]>
  </style>
  <linearGradient id="id0" gradientUnits="userSpaceOnUse" x1="12596.56" y1="20772.05" x2="12509.26" y2="2700.43">
   <stop offset="0" style="stop-opacity:1; stop-color:#00FAEB"/>
   <stop offset="1" style="stop-opacity:1; stop-color:white"/>
  </linearGradient>
 </defs>
 <g id="Warstwa_x0020_1">
  <metadata id="CorelCorpID_0Corel-Layer"/>
 </g>
 <g id="Warstwa_x0020_2">
  <metadata id="CorelCorpID_1Corel-Layer"/>
  <path class="fil0 str0" d="M12634.85 11375.27c-2525.34,-3033.2 -5341.44,-9451.47 -12048.02,-7553.82 -587.87,166.33 -104.98,1218.18 275.9,1721.91 410.37,542.72 776.85,550.27 896.81,1057.84 153.21,648.26 -195.44,1349.39 -43.44,1997.95 79.56,339.47 657.8,435.13 694.94,781.81 60.59,565.65 -199.32,969.62 -148.75,1536.24 30.15,337.86 761.31,132.95 580.64,627.63 -266.75,730.36 2215.55,526.26 3216.54,485.58 -718.47,392.89 -2231.92,1474.1 -2535.03,2427.3 -354.62,1115.15 577.7,1897.44 719.98,2399.66 104.48,368.79 -237.58,353.4 -52.6,689.11 374.58,679.78 635.05,942.64 678.28,1706.32 20.06,354.34 467.71,289.91 484.96,699.51 17.34,411.65 527.41,567.65 878.8,782.79 375.52,229.9 592.53,544.5 1004.52,699.84 529.01,199.45 1634.81,-324.4 1971.5,-778.54 1704.42,-2299 1868.58,-5893.9 3427.17,-7263.52 1558.59,1369.62 1701.45,4960.89 3405.87,7259.89 336.69,454.14 1442.49,977.99 1971.5,778.54 411.99,-155.34 629,-469.94 1004.52,-699.84 351.39,-215.14 861.46,-371.14 878.8,-782.79 17.25,-409.6 464.9,-345.17 484.96,-699.51 43.23,-763.68 303.7,-1026.54 678.28,-1706.32 184.98,-335.71 -157.08,-320.32 -52.6,-689.11 142.28,-502.22 1074.6,-1284.51 719.98,-2399.66 -303.11,-953.2 -1816.56,-2034.41 -2535.03,-2427.3 1000.99,40.68 3483.29,244.78 3216.54,-485.58 -180.67,-494.68 550.49,-289.77 580.64,-627.63 50.57,-566.62 -209.34,-970.59 -148.75,-1536.24 37.14,-346.68 615.38,-442.34 694.94,-781.81 152,-648.56 -196.65,-1349.69 -43.44,-1997.95 119.96,-507.57 486.44,-515.12 896.81,-1057.84 380.88,-503.73 863.77,-1555.57 275.9,-1721.91 -6706.59,-1897.65 -9505.78,4524.25 -12031.12,7557.45z"/>
 </g>
</svg>
